<svg enable-background="new 0 0 24 24" height="24" viewBox="0 0 24 24" width="24" xmlns="http://www.w3.org/2000/svg"><path d="m0 0h24v24h-24z" fill="none"/><path d="m15.5 14h-.79l-.28-.27c.98-1.14 1.57-2.62 1.57-4.23 0-3.59-2.91-6.5-6.5-6.5-3.42 0-6.22 2.64-6.47 6h2.02c.25-2.25 2.13-4 4.45-4 2.49 0 4.5 2.01 4.5 4.5s-2.01 4.5-4.5 4.5c-.17 0-.33-.03-.5-.05v2.02c.17.02.33.03.5.03 1.61 0 3.09-.59 4.23-1.57l.27.28v.79l5 4.99 1.49-1.49z"/><path d="m6.47 10.82-2.47 2.47-2.47-2.47-.71.71 2.47 2.47-2.47 2.47.71.71 2.47-2.47 2.47 2.47.71-.71-2.47-2.47 2.47-2.47z"/></svg>